<svg xmlns="http://www.w3.org/2000/svg" height="512pt" version="1.1" viewBox="0 -11 512.0013 512" width="512pt">
<g id="surface1">
<path d="M 243.328125 0 L 274.195312 0 L 274.195312 210.988281 L 243.328125 210.988281 Z M 243.328125 0 " style=" stroke:none;fill-rule:nonzero;fill:rgb(93.72549%,92.941176%,93.333333%);fill-opacity:1;" />
<path d="M 155.625 210.988281 C 153.105469 210.988281 150.558594 210.339844 148.230469 208.976562 L 88.734375 174.121094 C 85.914062 172.46875 82.5625 172.121094 79.476562 173.136719 L 36.347656 192.703125 C 28.972656 196.046875 20.289062 192.785156 16.945312 185.414062 C 13.601562 178.039062 16.863281 169.355469 24.234375 166.011719 L 67.933594 146.183594 C 68.25 146.042969 68.570312 145.910156 68.894531 145.789062 C 80.363281 141.539062 92.996094 142.644531 103.550781 148.828125 L 163.046875 183.683594 C 170.03125 187.777344 172.375 196.757812 168.285156 203.738281 C 165.554688 208.394531 160.65625 210.988281 155.625 210.988281 Z M 155.625 210.988281 " style=" stroke:none;fill-rule:nonzero;fill:rgb(56.470588%,37.254902%,65.882353%);fill-opacity:1;" />
<path d="M 14.65625 291.574219 C 10.992188 291.574219 7.328125 290.210938 4.484375 287.46875 C -1.34375 281.851562 -1.511719 272.570312 4.105469 266.746094 L 34.09375 235.636719 C 42.667969 226.820312 54.554688 222.398438 66.738281 223.441406 L 135.441406 229.347656 C 143.503906 230.042969 149.480469 237.140625 148.785156 245.207031 C 148.09375 253.269531 140.992188 259.242188 132.929688 258.550781 L 64.230469 252.644531 C 60.839844 252.359375 57.527344 253.589844 55.152344 256.03125 L 25.210938 287.089844 C 22.332031 290.074219 18.496094 291.574219 14.65625 291.574219 Z M 14.65625 291.574219 " style=" stroke:none;fill-rule:nonzero;fill:rgb(56.470588%,37.254902%,65.882353%);fill-opacity:1;" />
<path d="M 41 419.449219 C 39.429688 419.449219 37.832031 419.195312 36.265625 418.660156 C 28.605469 416.042969 24.515625 407.714844 27.128906 400.054688 L 42.421875 355.261719 C 45.808594 343.683594 54.066406 334.289062 65.136719 329.449219 L 128.316406 301.828125 C 135.730469 298.585938 144.371094 301.96875 147.617188 309.382812 C 150.859375 316.800781 147.472656 325.441406 140.058594 328.683594 L 76.878906 356.308594 C 73.757812 357.671875 71.441406 360.335938 70.523438 363.617188 C 70.449219 363.875 70.367188 364.132812 70.28125 364.390625 L 54.867188 409.527344 C 52.789062 415.617188 47.097656 419.449219 41 419.449219 Z M 41 419.449219 " style=" stroke:none;fill-rule:nonzero;fill:rgb(56.470588%,37.254902%,65.882353%);fill-opacity:1;" />
<path d="M 117.972656 489.289062 C 117.785156 489.289062 117.601562 489.285156 117.417969 489.277344 C 109.328125 488.976562 103.011719 482.179688 103.3125 474.089844 L 105.070312 426.863281 C 105.441406 414.726562 111.222656 403.441406 120.921875 395.988281 L 175.605469 353.984375 C 182.027344 349.050781 191.226562 350.257812 196.15625 356.679688 C 201.085938 363.097656 199.882812 372.296875 193.460938 377.230469 L 138.78125 419.234375 C 136.078125 421.308594 134.46875 424.453125 134.363281 427.855469 L 132.605469 475.175781 C 132.3125 483.082031 125.816406 489.289062 117.972656 489.289062 Z M 117.972656 489.289062 " style=" stroke:none;fill-rule:nonzero;fill:rgb(56.470588%,37.254902%,65.882353%);fill-opacity:1;" />
<path d="M 356.378906 210.988281 C 358.894531 210.988281 361.445312 210.339844 363.773438 208.976562 L 423.269531 174.121094 C 426.085938 172.46875 429.4375 172.121094 432.527344 173.136719 L 475.65625 192.703125 C 483.027344 196.046875 491.710938 192.785156 495.058594 185.414062 C 498.402344 178.039062 495.136719 169.355469 487.765625 166.011719 L 444.066406 146.183594 C 443.753906 146.042969 443.433594 145.910156 443.105469 145.789062 C 431.636719 141.539062 419.003906 142.644531 408.449219 148.828125 L 348.953125 183.683594 C 341.96875 187.777344 339.625 196.757812 343.71875 203.738281 C 346.445312 208.394531 351.34375 210.988281 356.378906 210.988281 Z M 356.378906 210.988281 " style=" stroke:none;fill-rule:nonzero;fill:rgb(56.470588%,37.254902%,65.882353%);fill-opacity:1;" />
<path d="M 497.347656 291.574219 C 501.007812 291.574219 504.671875 290.210938 507.515625 287.46875 C 513.34375 281.851562 513.515625 272.570312 507.894531 266.746094 L 477.90625 235.636719 C 469.332031 226.820312 457.445312 222.398438 445.261719 223.441406 L 376.5625 229.347656 C 368.496094 230.042969 362.519531 237.140625 363.214844 245.207031 C 363.90625 253.269531 371.007812 259.242188 379.074219 258.550781 L 447.773438 252.644531 C 451.160156 252.359375 454.472656 253.589844 456.847656 256.03125 L 486.792969 287.089844 C 489.667969 290.074219 493.503906 291.574219 497.347656 291.574219 Z M 497.347656 291.574219 " style=" stroke:none;fill-rule:nonzero;fill:rgb(56.470588%,37.254902%,65.882353%);fill-opacity:1;" />
<path d="M 471 419.449219 C 472.570312 419.449219 474.167969 419.195312 475.738281 418.660156 C 483.398438 416.042969 487.488281 407.714844 484.871094 400.054688 L 469.578125 355.261719 C 466.195312 343.683594 457.9375 334.289062 446.863281 329.449219 L 383.6875 301.828125 C 376.269531 298.585938 367.628906 301.96875 364.386719 309.382812 C 361.144531 316.800781 364.527344 325.441406 371.945312 328.683594 L 435.121094 356.308594 C 438.242188 357.671875 440.5625 360.335938 441.480469 363.617188 C 441.554688 363.875 441.632812 364.132812 441.722656 364.390625 L 457.132812 409.523438 C 459.210938 415.617188 464.90625 419.449219 471 419.449219 Z M 471 419.449219 " style=" stroke:none;fill-rule:nonzero;fill:rgb(56.470588%,37.254902%,65.882353%);fill-opacity:1;" />
<path d="M 394.03125 489.289062 C 394.214844 489.289062 394.398438 489.285156 394.585938 489.277344 C 402.671875 488.976562 408.988281 482.179688 408.6875 474.089844 L 406.933594 426.863281 C 406.558594 414.726562 400.777344 403.441406 391.078125 395.988281 L 336.394531 353.984375 C 329.976562 349.050781 320.773438 350.257812 315.84375 356.679688 C 310.914062 363.097656 312.117188 372.296875 318.539062 377.230469 L 373.222656 419.234375 C 375.921875 421.308594 377.53125 424.453125 377.636719 427.855469 L 379.394531 475.175781 C 379.6875 483.082031 386.1875 489.289062 394.03125 489.289062 Z M 394.03125 489.289062 " style=" stroke:none;fill-rule:nonzero;fill:rgb(56.470588%,37.254902%,65.882353%);fill-opacity:1;" />
<path d="M 243.328125 115.554688 L 274.195312 115.554688 L 274.195312 210.988281 L 243.328125 210.988281 Z M 243.328125 115.554688 " style=" stroke:none;fill-rule:nonzero;fill:rgb(83.137255%,83.137255%,83.137255%);fill-opacity:1;" />
<path d="M 276.03125 146.460938 L 241.492188 146.460938 C 166.214844 146.460938 105.1875 207.488281 105.1875 282.765625 C 105.1875 358.046875 166.214844 419.070312 241.492188 419.070312 L 276.03125 419.070312 C 351.3125 419.070312 412.335938 358.046875 412.335938 282.765625 C 412.335938 207.488281 351.3125 146.460938 276.03125 146.460938 Z M 276.03125 146.460938 " style=" stroke:none;fill-rule:nonzero;fill:rgb(65.098039%,42.745098%,76.078431%);fill-opacity:1;" />
<path d="M 136.09375 282.765625 C 136.09375 207.488281 197.117188 146.460938 272.398438 146.460938 L 241.492188 146.460938 C 166.214844 146.460938 105.1875 207.488281 105.1875 282.765625 C 105.1875 358.046875 166.214844 419.070312 241.492188 419.070312 L 272.398438 419.070312 C 197.117188 419.070312 136.09375 358.046875 136.09375 282.765625 Z M 136.09375 282.765625 " style=" stroke:none;fill-rule:nonzero;fill:rgb(56.470588%,37.254902%,65.882353%);fill-opacity:1;" />
<path d="M 185.234375 321.242188 C 180.964844 321.242188 177.507812 317.78125 177.507812 313.515625 L 177.507812 296.535156 C 177.507812 292.269531 180.964844 288.808594 185.234375 288.808594 C 189.503906 288.808594 192.960938 292.269531 192.960938 296.535156 L 192.960938 313.515625 C 192.960938 317.78125 189.503906 321.242188 185.234375 321.242188 Z M 185.234375 321.242188 " style=" stroke:none;fill-rule:nonzero;fill:rgb(22.745098%,28.235294%,29.019608%);fill-opacity:1;" />
<path d="M 197.558594 308.4375 C 196.734375 308.4375 195.902344 308.304688 195.078125 308.027344 L 171.738281 300.125 C 167.695312 298.757812 165.527344 294.371094 166.894531 290.328125 C 168.261719 286.285156 172.652344 284.121094 176.691406 285.488281 L 200.035156 293.390625 C 204.078125 294.757812 206.242188 299.140625 204.875 303.183594 C 203.785156 306.40625 200.777344 308.4375 197.558594 308.4375 Z M 197.558594 308.4375 " style=" stroke:none;fill-rule:nonzero;fill:rgb(22.745098%,28.235294%,29.019608%);fill-opacity:1;" />
<path d="M 326.769531 321.242188 C 322.5 321.242188 319.042969 317.78125 319.042969 313.515625 L 319.042969 296.535156 C 319.042969 292.269531 322.5 288.808594 326.769531 288.808594 C 331.035156 288.808594 334.496094 292.269531 334.496094 296.535156 L 334.496094 313.515625 C 334.496094 317.78125 331.035156 321.242188 326.769531 321.242188 Z M 326.769531 321.242188 " style=" stroke:none;fill-rule:nonzero;fill:rgb(22.745098%,28.235294%,29.019608%);fill-opacity:1;" />
<path d="M 314.445312 308.4375 C 311.222656 308.4375 308.21875 306.40625 307.125 303.183594 C 305.757812 299.140625 307.925781 294.757812 311.96875 293.390625 L 335.3125 285.488281 C 339.347656 284.121094 343.738281 286.285156 345.105469 290.328125 C 346.476562 294.371094 344.308594 298.757812 340.265625 300.125 L 316.921875 308.027344 C 316.101562 308.304688 315.265625 308.4375 314.445312 308.4375 Z M 314.445312 308.4375 " style=" stroke:none;fill-rule:nonzero;fill:rgb(22.745098%,28.235294%,29.019608%);fill-opacity:1;" />
<path d="M 256 326.128906 C 247.015625 326.128906 238.582031 322.375 232.855469 315.824219 C 230.046875 312.609375 230.378906 307.730469 233.589844 304.921875 C 236.800781 302.113281 241.683594 302.441406 244.492188 305.652344 C 247.28125 308.847656 251.476562 310.675781 256 310.675781 C 260.523438 310.675781 264.71875 308.847656 267.507812 305.652344 C 270.316406 302.441406 275.199219 302.113281 278.410156 304.921875 C 281.625 307.730469 281.953125 312.609375 279.144531 315.824219 C 273.417969 322.375 264.984375 326.128906 256 326.128906 Z M 256 326.128906 " style=" stroke:none;fill-rule:nonzero;fill:rgb(22.745098%,28.235294%,29.019608%);fill-opacity:1;" />
</g>
</svg>