<svg id="Capa_1" enable-background="new 0 0 512 512" height="512" viewBox="0 0 512 512" width="512" xmlns="http://www.w3.org/2000/svg"><g><g><path d="m241.659 302.23c-.337-4.175 1.084-8.306 3.926-11.396 2.842-3.076 6.841-4.834 11.03-4.834l36.49-30 52.895 30c57.891 0 105 47.109 105 105v75c0 8.291-6.709 15-15 15-100.693 0-186.05-78.53-194.341-178.77z" fill="#aa80ff"/></g><g><g><path d="m256.439 285.927c-8.653 0-15.491-7.348-14.941-15.923 8.306-134.019 121.088-239.004 255.502-239.004 8.291 0 15 6.709 15 15v135c0 57.891-48.109 105-106 105z" fill="#f25588"/></g></g><path d="m329.784 185.409c6.87-10.605 13.359-19.526 19.834-27.305 15.337-18.413 40.02-25.02 62.813-16.729 23.437 8.482 38.569 29.928 38.569 54.625 0 24.814-20.186 45-45 45h-10.693c-38.306 0-80.341 22.702-102.65 56.057l-.013-.009c-.062.093-.108.174-.17.267-.007.011-.015.024-.022.035l-24.902-16.699c25.134-37.482 43.195-65.908 62.234-95.242z" fill="#ffbe40"/><g><path d="m361 406c3.838 0 7.676-1.465 10.605-4.395l15-15c5.859-5.859 5.859-15.352 0-21.211s-15.352-5.859-21.211 0l-4.394 4.395-4.395-4.395c-5.859-5.859-15.352-5.859-21.211 0s-5.859 15.352 0 21.211l15 15c2.93 2.93 6.768 4.395 10.606 4.395z" fill="#ffbe40"/></g><circle cx="436" cy="106" fill="#ffbe40" r="15"/><g><path d="m76 481c-8.291 0-15-6.709-15-15v-75c0-57.891 47.109-105 105-105l52.895-30 36.49 30c4.189 0 8.188 1.758 11.03 4.834 2.842 3.091 4.263 7.222 3.926 11.396-8.291 100.24-93.648 178.77-194.341 178.77z" fill="#c68cff"/></g><g><g><path d="m106 286c-57.891 0-106-47.109-106-105v-135c0-8.291 6.709-15 15-15 134.414 0 247.196 104.985 255.502 239.004.549 8.575-6.288 15.923-14.941 15.923z" fill="#ff8cd9"/></g></g><path d="m182.216 185.409c-6.87-10.605-13.359-19.526-19.834-27.305-15.337-18.413-40.02-25.02-62.813-16.729-23.437 8.482-38.569 29.928-38.569 54.625 0 24.814 20.186 45 45 45h10.693c38.306 0 80.341 22.702 102.65 56.057l.013-.009c.062.093.108.174.17.267.007.011.015.024.022.035l24.902-16.699c-25.134-37.482-43.195-65.908-62.234-95.242z" fill="#ffdf40"/><g><path d="m151 406c-3.838 0-7.676-1.465-10.605-4.395l-15-15c-5.859-5.859-5.859-15.352 0-21.211s15.352-5.859 21.211 0l4.395 4.395 4.395-4.395c5.859-5.859 15.352-5.859 21.211 0s5.859 15.352 0 21.211l-15 15c-2.931 2.93-6.769 4.395-10.607 4.395z" fill="#ffdf40"/></g><circle cx="76" cy="106" fill="#ffdf40" r="15"/><path d="m316 31c-24.62 0-46.318 12.085-60 30.463-13.682-18.378-35.38-30.463-60-30.463-8.291 0-15 6.709-15 15s6.709 15 15 15c24.814 0 45 20.186 45 45v120c0 8.291 6.709 15 15 15s15-6.709 15-15v-120c0-24.814 20.186-45 45-45 8.291 0 15-6.709 15-15s-6.709-15-15-15z" fill="#5f5166"/><path d="m271 226v-120c0-24.814 20.186-45 45-45 8.291 0 15-6.709 15-15s-6.709-15-15-15c-24.62 0-46.318 12.085-60 30.463v179.537c8.291 0 15-6.709 15-15z" fill="#5f5266"/><path d="m299.418 279.291-30-60c-2.549-5.083-7.983-7.625-13.418-7.625s-10.869 2.542-13.418 7.625l-30 60c-1.597 3.208-2.007 6.87-1.128 10.342l30 120c1.67 6.68 7.661 11.367 14.546 11.367s12.876-4.688 14.546-11.367l30-120c.879-3.472.469-7.134-1.128-10.342z" fill="#5f5266"/><path d="m270.546 409.633 30-120c.879-3.472.469-7.134-1.128-10.342l-30-60c-2.549-5.083-7.983-7.625-13.418-7.625v209.334c6.885 0 12.876-4.687 14.546-11.367z" fill="#45364d"/></g></svg>